<?xml version="1.0" encoding="utf-8" standalone="no"?>
<!DOCTYPE svg PUBLIC "-//W3C//DTD SVG 1.1//EN"
  "http://www.w3.org/Graphics/SVG/1.1/DTD/svg11.dtd">
<svg xmlns:xlink="http://www.w3.org/1999/xlink" width="521.038281pt" height="245.455102pt" viewBox="0 0 521.038281 245.455102" xmlns="http://www.w3.org/2000/svg" version="1.1">
 <metadata>
  <rdf:RDF xmlns:dc="http://purl.org/dc/elements/1.1/" xmlns:cc="http://creativecommons.org/ns#" xmlns:rdf="http://www.w3.org/1999/02/22-rdf-syntax-ns#">
   <cc:Work>
    <dc:type rdf:resource="http://purl.org/dc/dcmitype/StillImage"/>
    <dc:date>2026-02-19T08:38:06.979282</dc:date>
    <dc:format>image/svg+xml</dc:format>
    <dc:creator>
     <cc:Agent>
      <dc:title>Matplotlib v3.10.8, https://matplotlib.org/</dc:title>
     </cc:Agent>
    </dc:creator>
   </cc:Work>
  </rdf:RDF>
 </metadata>
 <defs>
  <style type="text/css">*{stroke-linejoin: round; stroke-linecap: butt}</style>
 </defs>
 <g id="figure_1">
  <g id="patch_1">
   <path d="M 0 245.455102 
L 521.038281 245.455102 
L 521.038281 0 
L 0 0 
z
" style="fill: #f8fafc"/>
  </g>
  <g id="axes_1">
   <g id="patch_2">
    <path d="M 26.3 187.997513 
L 513.838281 187.997513 
L 513.838281 7.2 
L 26.3 7.2 
z
" style="fill: #f8fafc"/>
   </g>
   <g id="matplotlib.axis_1">
    <g id="xtick_1">
     <g id="line2d_1">
      <defs>
       <path id="m0c083af066" d="M 0 0 
L 0 3.5 
" style="stroke: #000000; stroke-width: 0.8"/>
      </defs>
      <g>
       <use xlink:href="#m0c083af066" x="258.461086" y="187.997513" style="stroke: #000000; stroke-width: 0.8"/>
      </g>
     </g>
     <g id="text_1">
      <!-- $a$ -->
      <g transform="translate(255.281086 204.115638) scale(0.12 -0.12)">
       <defs>
        <path id="Cmmi10-61" d="M 1113 -72 
Q 709 -72 476 233 
Q 244 538 244 953 
Q 244 1363 456 1803 
Q 669 2244 1030 2536 
Q 1391 2828 1806 2828 
Q 1997 2828 2147 2725 
Q 2297 2622 2381 2444 
Q 2453 2700 2663 2700 
Q 2744 2700 2798 2651 
Q 2853 2603 2853 2522 
Q 2853 2503 2851 2493 
Q 2850 2484 2847 2472 
L 2400 684 
Q 2356 494 2356 372 
Q 2356 97 2541 97 
Q 2741 97 2845 351 
Q 2950 606 3022 941 
Q 3034 978 3072 978 
L 3150 978 
Q 3175 978 3190 956 
Q 3206 934 3206 916 
Q 3094 469 2961 198 
Q 2828 -72 2528 -72 
Q 2313 -72 2147 54 
Q 1981 181 1941 391 
Q 1528 -72 1113 -72 
z
M 1119 97 
Q 1350 97 1567 270 
Q 1784 444 1941 678 
Q 1947 684 1947 697 
L 2291 2088 
L 2297 2106 
Q 2259 2334 2132 2498 
Q 2006 2663 1791 2663 
Q 1575 2663 1389 2486 
Q 1203 2309 1075 2069 
Q 950 1813 836 1366 
Q 722 919 722 672 
Q 722 450 817 273 
Q 913 97 1119 97 
z
" transform="scale(0.015625)"/>
       </defs>
       <use xlink:href="#Cmmi10-61" transform="translate(0 0.8125)"/>
      </g>
     </g>
    </g>
    <g id="text_2">
     <!-- $x$ -->
     <g transform="translate(266.589141 219.729388) scale(0.12 -0.12)">
      <defs>
       <path id="Cmmi10-78" d="M 500 184 
Q 613 97 819 97 
Q 1019 97 1172 289 
Q 1325 481 1381 709 
L 1672 1844 
Q 1741 2153 1741 2266 
Q 1741 2425 1652 2544 
Q 1563 2663 1403 2663 
Q 1200 2663 1022 2536 
Q 844 2409 722 2214 
Q 600 2019 550 1819 
Q 538 1778 500 1778 
L 422 1778 
Q 372 1778 372 1838 
L 372 1856 
Q 434 2094 584 2320 
Q 734 2547 951 2687 
Q 1169 2828 1416 2828 
Q 1650 2828 1839 2703 
Q 2028 2578 2106 2363 
Q 2216 2559 2386 2693 
Q 2556 2828 2759 2828 
Q 2897 2828 3040 2779 
Q 3184 2731 3275 2631 
Q 3366 2531 3366 2381 
Q 3366 2219 3261 2101 
Q 3156 1984 2994 1984 
Q 2891 1984 2822 2050 
Q 2753 2116 2753 2216 
Q 2753 2350 2845 2451 
Q 2938 2553 3066 2572 
Q 2950 2663 2747 2663 
Q 2541 2663 2389 2472 
Q 2238 2281 2175 2047 
L 1894 916 
Q 1825 659 1825 494 
Q 1825 331 1917 214 
Q 2009 97 2163 97 
Q 2463 97 2698 361 
Q 2934 625 3009 941 
Q 3022 978 3059 978 
L 3138 978 
Q 3163 978 3178 961 
Q 3194 944 3194 922 
Q 3194 916 3188 903 
Q 3097 522 2806 225 
Q 2516 -72 2150 -72 
Q 1916 -72 1727 54 
Q 1538 181 1459 397 
Q 1359 209 1182 68 
Q 1006 -72 806 -72 
Q 669 -72 523 -23 
Q 378 25 287 125 
Q 197 225 197 378 
Q 197 528 301 651 
Q 406 775 563 775 
Q 669 775 741 711 
Q 813 647 813 544 
Q 813 409 723 309 
Q 634 209 500 184 
z
" transform="scale(0.015625)"/>
      </defs>
      <use xlink:href="#Cmmi10-78" transform="translate(0 0.8125)"/>
     </g>
    </g>
   </g>
   <g id="matplotlib.axis_2">
    <g id="ytick_1">
     <g id="line2d_2">
      <defs>
       <path id="mb688e3524b" d="M 0 0 
L -3.5 0 
" style="stroke: #000000; stroke-width: 0.8"/>
      </defs>
      <g>
       <use xlink:href="#mb688e3524b" x="26.3" y="85.271653" style="stroke: #000000; stroke-width: 0.8"/>
      </g>
     </g>
     <g id="text_3">
      <!-- $L_2$ -->
      <g transform="translate(7.2 89.450794) scale(0.11 -0.11)">
       <defs>
        <path id="Cmmi10-4c" d="M 300 0 
Q 238 0 238 84 
Q 241 100 250 139 
Q 259 178 276 201 
Q 294 225 319 225 
Q 709 225 863 269 
Q 947 297 984 441 
L 1863 3956 
Q 1875 4019 1875 4044 
Q 1875 4113 1797 4122 
Q 1678 4147 1338 4147 
Q 1275 4147 1275 4231 
Q 1297 4313 1309 4342 
Q 1322 4372 1381 4372 
L 3272 4372 
Q 3328 4372 3328 4288 
Q 3319 4222 3306 4184 
Q 3294 4147 3244 4147 
Q 2772 4147 2613 4116 
Q 2456 4088 2419 3928 
L 1544 416 
Q 1516 338 1516 275 
Q 1516 225 1734 225 
L 2328 225 
Q 2831 225 3143 425 
Q 3456 625 3606 876 
Q 3756 1128 3857 1398 
Q 3959 1669 4006 1678 
L 4063 1678 
Q 4128 1678 4128 1594 
L 3559 44 
Q 3550 0 3500 0 
L 300 0 
z
" transform="scale(0.015625)"/>
        <path id="Cmr10-32" d="M 319 0 
L 319 172 
Q 319 188 331 206 
L 1325 1306 
Q 1550 1550 1690 1715 
Q 1831 1881 1968 2097 
Q 2106 2313 2186 2536 
Q 2266 2759 2266 3009 
Q 2266 3272 2169 3511 
Q 2072 3750 1880 3894 
Q 1688 4038 1416 4038 
Q 1138 4038 916 3870 
Q 694 3703 603 3438 
Q 628 3444 672 3444 
Q 816 3444 917 3347 
Q 1019 3250 1019 3097 
Q 1019 2950 917 2848 
Q 816 2747 672 2747 
Q 522 2747 420 2851 
Q 319 2956 319 3097 
Q 319 3338 409 3548 
Q 500 3759 670 3923 
Q 841 4088 1055 4175 
Q 1269 4263 1509 4263 
Q 1875 4263 2190 4108 
Q 2506 3953 2690 3670 
Q 2875 3388 2875 3009 
Q 2875 2731 2753 2481 
Q 2631 2231 2440 2026 
Q 2250 1822 1953 1562 
Q 1656 1303 1563 1216 
L 838 519 
L 1453 519 
Q 1906 519 2211 526 
Q 2516 534 2534 550 
Q 2609 631 2688 1141 
L 2875 1141 
L 2694 0 
L 319 0 
z
" transform="scale(0.015625)"/>
       </defs>
       <use xlink:href="#Cmmi10-4c" transform="translate(0 0.6875)"/>
       <use xlink:href="#Cmr10-32" transform="translate(68.017578 -16.31875) scale(0.7)"/>
      </g>
     </g>
    </g>
    <g id="ytick_2">
     <g id="line2d_3">
      <g>
       <use xlink:href="#mb688e3524b" x="26.3" y="57.098567" style="stroke: #000000; stroke-width: 0.8"/>
      </g>
     </g>
     <g id="text_4">
      <!-- $L_1$ -->
      <g transform="translate(7.2 61.277708) scale(0.11 -0.11)">
       <defs>
        <path id="Cmr10-31" d="M 594 0 
L 594 225 
Q 1394 225 1394 428 
L 1394 3788 
Q 1063 3628 556 3628 
L 556 3853 
Q 1341 3853 1741 4263 
L 1831 4263 
Q 1853 4263 1873 4245 
Q 1894 4228 1894 4206 
L 1894 428 
Q 1894 225 2694 225 
L 2694 0 
L 594 0 
z
" transform="scale(0.015625)"/>
       </defs>
       <use xlink:href="#Cmmi10-4c" transform="translate(0 0.6875)"/>
       <use xlink:href="#Cmr10-31" transform="translate(68.017578 -16.31875) scale(0.7)"/>
      </g>
     </g>
    </g>
   </g>
   <g id="line2d_4">
    <path d="M 49.516109 89.380688 
L 54.194242 86.531087 
L 58.872375 83.92851 
L 64.070301 81.300495 
L 69.268226 78.924356 
L 74.985945 76.572778 
L 80.703663 74.467897 
L 86.941174 72.422681 
L 93.178685 70.610373 
L 99.935988 68.879182 
L 107.213084 67.251728 
L 115.009973 65.744847 
L 123.326654 64.36972 
L 132.163128 63.132249 
L 142.039187 61.978235 
L 152.954831 60.935169 
L 164.91006 60.019542 
L 178.424667 59.210388 
L 194.018444 58.505575 
L 212.211184 57.91209 
L 234.042472 57.427787 
L 256.913346 57.098567 
L 256.913346 57.098567 
" clip-path="url(#p23723e68d6)" style="fill: none; stroke: #e11d48; stroke-width: 2.4; stroke-linecap: square"/>
   </g>
   <g id="line2d_5">
    <path d="M 260.008827 85.271653 
L 264.167167 88.771837 
L 268.325508 92.00097 
L 273.003641 95.335826 
L 277.681774 98.381594 
L 282.359908 101.163333 
L 287.038041 103.703931 
L 292.235966 106.269361 
L 297.433892 108.588913 
L 303.151611 110.884489 
L 308.869329 112.939244 
L 315.10684 114.935754 
L 321.344351 116.704903 
L 328.101654 118.394866 
L 335.37875 119.983563 
L 343.175639 121.454559 
L 351.49232 122.796938 
L 360.848586 124.069759 
L 370.724645 125.184997 
L 381.640289 126.193016 
L 394.115311 127.111892 
L 408.149711 127.911934 
L 424.26328 128.598439 
L 442.975813 129.1681 
L 465.846686 129.634667 
L 467.406064 129.659569 
L 467.406064 129.659569 
" clip-path="url(#p23723e68d6)" style="fill: none; stroke: #0ea5e9; stroke-width: 2.4; stroke-linecap: square"/>
   </g>
   <g id="line2d_6">
    <path d="M 26.3 57.098567 
L 245.692227 57.098567 
" clip-path="url(#p23723e68d6)" style="fill: none; stroke-dasharray: 3.7,1.6; stroke-dashoffset: 0; stroke: #e11d48; stroke-opacity: 0.45"/>
   </g>
   <g id="line2d_7">
    <path d="M 26.3 85.271653 
L 245.692227 85.271653 
" clip-path="url(#p23723e68d6)" style="fill: none; stroke-dasharray: 3.7,1.6; stroke-dashoffset: 0; stroke: #0ea5e9; stroke-opacity: 0.45"/>
   </g>
   <g id="line2d_8">
    <path d="M 258.461086 187.997513 
L 258.461086 12.623925 
" clip-path="url(#p23723e68d6)" style="fill: none; stroke-dasharray: 3.7,1.6; stroke-dashoffset: 0; stroke: #94a3b8; stroke-opacity: 0.7"/>
   </g>
   <g id="patch_3">
    <path d="M 26.3 187.997513 
L 26.3 7.2 
" style="fill: none; stroke: #000000; stroke-width: 0.8; stroke-linejoin: miter; stroke-linecap: square"/>
   </g>
   <g id="patch_4">
    <path d="M 26.3 187.997513 
L 513.838281 187.997513 
" style="fill: none; stroke: #000000; stroke-width: 0.8; stroke-linejoin: miter; stroke-linecap: square"/>
   </g>
   <g id="line2d_9">
    <defs>
     <path id="m7f00137f12" d="M 0 3.5 
C 0.928211 3.5 1.81853 3.131218 2.474874 2.474874 
C 3.131218 1.81853 3.5 0.928211 3.5 0 
C 3.5 -0.928211 3.131218 -1.81853 2.474874 -2.474874 
C 1.81853 -3.131218 0.928211 -3.5 0 -3.5 
C -0.928211 -3.5 -1.81853 -3.131218 -2.474874 -2.474874 
C -3.131218 -1.81853 -3.5 -0.928211 -3.5 0 
C -3.5 0.928211 -3.131218 1.81853 -2.474874 2.474874 
C -1.81853 3.131218 -0.928211 3.5 0 3.5 
z
" style="stroke: #e11d48; stroke-width: 2"/>
    </defs>
    <g clip-path="url(#p23723e68d6)">
     <use xlink:href="#m7f00137f12" x="258.461086" y="57.098567" style="fill: #f8fafc; stroke: #e11d48; stroke-width: 2"/>
    </g>
   </g>
   <g id="line2d_10">
    <defs>
     <path id="ma266976f50" d="M 0 3.5 
C 0.928211 3.5 1.81853 3.131218 2.474874 2.474874 
C 3.131218 1.81853 3.5 0.928211 3.5 0 
C 3.5 -0.928211 3.131218 -1.81853 2.474874 -2.474874 
C 1.81853 -3.131218 0.928211 -3.5 0 -3.5 
C -0.928211 -3.5 -1.81853 -3.131218 -2.474874 -2.474874 
C -3.131218 -1.81853 -3.5 -0.928211 -3.5 0 
C -3.5 0.928211 -3.131218 1.81853 -2.474874 2.474874 
C -1.81853 3.131218 -0.928211 3.5 0 3.5 
z
" style="stroke: #0ea5e9; stroke-width: 2"/>
    </defs>
    <g clip-path="url(#p23723e68d6)">
     <use xlink:href="#ma266976f50" x="258.461086" y="85.271653" style="fill: #f8fafc; stroke: #0ea5e9; stroke-width: 2"/>
    </g>
   </g>
   <g id="legend_1">
    <g id="patch_5">
     <path d="M 188.999141 238.255102 
L 351.139141 238.255102 
Q 353.339141 238.255102 353.339141 236.055102 
L 353.339141 221.009165 
Q 353.339141 218.809165 351.139141 218.809165 
L 188.999141 218.809165 
Q 186.799141 218.809165 186.799141 221.009165 
L 186.799141 236.055102 
Q 186.799141 238.255102 188.999141 238.255102 
L 188.999141 238.255102 
z
" style="fill: none; opacity: 0"/>
    </g>
    <g id="line2d_11">
     <path d="M 191.199141 227.717446 
L 202.199141 227.717446 
L 213.199141 227.717446 
" style="fill: none; stroke: #e11d48; stroke-width: 2.4; stroke-linecap: square"/>
    </g>
    <g id="text_5">
     <!-- $x \to a^-$ -->
     <g transform="translate(221.999141 231.567446) scale(0.11 -0.11)">
      <defs>
       <path id="Cmsy10-21" d="M 481 1472 
Q 428 1472 393 1512 
Q 359 1553 359 1600 
Q 359 1647 393 1687 
Q 428 1728 481 1728 
L 5338 1728 
Q 5094 1903 4906 2133 
Q 4719 2363 4594 2627 
Q 4469 2891 4416 3188 
Q 4416 3272 4481 3272 
L 4609 3272 
Q 4631 3272 4648 3253 
Q 4666 3234 4672 3213 
Q 4725 2938 4839 2702 
Q 4953 2466 5125 2262 
Q 5297 2059 5509 1912 
Q 5722 1766 5991 1672 
Q 6034 1644 6034 1600 
Q 6034 1550 5991 1538 
Q 5656 1422 5378 1192 
Q 5100 963 4919 652 
Q 4738 341 4672 -13 
Q 4666 -34 4647 -53 
Q 4628 -72 4609 -72 
L 4481 -72 
Q 4416 -72 4416 13 
Q 4497 450 4740 836 
Q 4984 1222 5338 1472 
L 481 1472 
z
" transform="scale(0.015625)"/>
       <path id="Cmsy10-a1" d="M 653 1472 
Q 600 1472 565 1512 
Q 531 1553 531 1600 
Q 531 1647 565 1687 
Q 600 1728 653 1728 
L 4325 1728 
Q 4375 1728 4408 1687 
Q 4441 1647 4441 1600 
Q 4441 1553 4408 1512 
Q 4375 1472 4325 1472 
L 653 1472 
z
" transform="scale(0.015625)"/>
      </defs>
      <use xlink:href="#Cmmi10-78" transform="translate(0 0.835938)"/>
      <use xlink:href="#Cmsy10-21" transform="translate(74.638672 0.835938)"/>
      <use xlink:href="#Cmmi10-61" transform="translate(192.197266 0.835938)"/>
      <use xlink:href="#Cmsy10-a1" transform="translate(263.574766 39.1) scale(0.7)"/>
     </g>
    </g>
    <g id="line2d_12">
     <path d="M 281.069141 227.717446 
L 292.069141 227.717446 
L 303.069141 227.717446 
" style="fill: none; stroke: #0ea5e9; stroke-width: 2.4; stroke-linecap: square"/>
    </g>
    <g id="text_6">
     <!-- $x \to a^+$ -->
     <g transform="translate(311.869141 231.567446) scale(0.11 -0.11)">
      <defs>
       <path id="Cmr10-2b" d="M 481 1472 
Q 428 1472 393 1512 
Q 359 1553 359 1600 
Q 359 1647 393 1687 
Q 428 1728 481 1728 
L 2363 1728 
L 2363 3616 
Q 2363 3666 2400 3698 
Q 2438 3731 2491 3731 
Q 2538 3731 2578 3698 
Q 2619 3666 2619 3616 
L 2619 1728 
L 4500 1728 
Q 4547 1728 4581 1687 
Q 4616 1647 4616 1600 
Q 4616 1553 4581 1512 
Q 4547 1472 4500 1472 
L 2619 1472 
L 2619 -416 
Q 2619 -466 2578 -498 
Q 2538 -531 2491 -531 
Q 2438 -531 2400 -498 
Q 2363 -466 2363 -416 
L 2363 1472 
L 481 1472 
z
" transform="scale(0.015625)"/>
      </defs>
      <use xlink:href="#Cmmi10-78" transform="translate(0 0.928125)"/>
      <use xlink:href="#Cmsy10-21" transform="translate(74.638672 0.928125)"/>
      <use xlink:href="#Cmmi10-61" transform="translate(192.197266 0.928125)"/>
      <use xlink:href="#Cmr10-2b" transform="translate(263.574766 39.192187) scale(0.7)"/>
     </g>
    </g>
   </g>
  </g>
 </g>
 <defs>
  <clipPath id="p23723e68d6">
   <rect x="26.3" y="7.2" width="487.538281" height="180.797513"/>
  </clipPath>
 </defs>
</svg>
