<?xml version="1.0" encoding="utf-8" standalone="no"?>
<!DOCTYPE svg PUBLIC "-//W3C//DTD SVG 1.1//EN"
  "http://www.w3.org/Graphics/SVG/1.1/DTD/svg11.dtd">
<svg xmlns:xlink="http://www.w3.org/1999/xlink" width="520.8pt" height="231.247132pt" viewBox="0 0 520.8 231.247132" xmlns="http://www.w3.org/2000/svg" version="1.1">
 <metadata>
  <rdf:RDF xmlns:dc="http://purl.org/dc/elements/1.1/" xmlns:cc="http://creativecommons.org/ns#" xmlns:rdf="http://www.w3.org/1999/02/22-rdf-syntax-ns#">
   <cc:Work>
    <dc:type rdf:resource="http://purl.org/dc/dcmitype/StillImage"/>
    <dc:date>2026-02-19T08:38:06.758116</dc:date>
    <dc:format>image/svg+xml</dc:format>
    <dc:creator>
     <cc:Agent>
      <dc:title>Matplotlib v3.10.8, https://matplotlib.org/</dc:title>
     </cc:Agent>
    </dc:creator>
   </cc:Work>
  </rdf:RDF>
 </metadata>
 <defs>
  <style type="text/css">*{stroke-linejoin: round; stroke-linecap: butt}</style>
 </defs>
 <g id="figure_1">
  <g id="patch_1">
   <path d="M 0 231.247132 
L 520.8 231.247132 
L 520.8 0 
L 0 0 
z
" style="fill: #f8fafc"/>
  </g>
  <g id="axes_1">
   <g id="patch_2">
    <path d="M 7.2 178.540353 
L 513.6 178.540353 
L 513.6 7.2 
L 7.2 7.2 
z
" style="fill: #f8fafc"/>
   </g>
   <g id="line2d_1">
    <path d="M 7.2 92.870176 
L 513.6 92.870176 
" clip-path="url(#p98a978daa3)" style="fill: none; stroke-dasharray: 8.4,5.6; stroke-dashoffset: 0; stroke: #92400e; stroke-opacity: 0.85; stroke-width: 1.4"/>
   </g>
   <g id="matplotlib.axis_1">
    <g id="text_1">
     <!-- $n$ -->
     <g transform="translate(256.74 191.658478) scale(0.12 -0.12)">
      <defs>
       <path id="Cmmi10-6e" d="M 494 109 
Q 494 147 500 166 
L 978 2075 
Q 1025 2253 1025 2388 
Q 1025 2663 838 2663 
Q 638 2663 541 2423 
Q 444 2184 353 1819 
Q 353 1800 334 1789 
Q 316 1778 300 1778 
L 225 1778 
Q 203 1778 187 1801 
Q 172 1825 172 1844 
Q 241 2122 305 2315 
Q 369 2509 505 2668 
Q 641 2828 844 2828 
Q 1084 2828 1268 2676 
Q 1453 2525 1453 2291 
Q 1644 2541 1900 2684 
Q 2156 2828 2444 2828 
Q 2672 2828 2837 2750 
Q 3003 2672 3095 2514 
Q 3188 2356 3188 2138 
Q 3188 1875 3070 1503 
Q 2953 1131 2778 672 
Q 2688 463 2688 288 
Q 2688 97 2834 97 
Q 3084 97 3251 365 
Q 3419 634 3488 941 
Q 3500 978 3541 978 
L 3616 978 
Q 3641 978 3658 962 
Q 3675 947 3675 922 
Q 3675 916 3669 903 
Q 3581 541 3364 234 
Q 3147 -72 2822 -72 
Q 2597 -72 2437 83 
Q 2278 238 2278 459 
Q 2278 578 2328 709 
Q 2409 919 2514 1209 
Q 2619 1500 2686 1765 
Q 2753 2031 2753 2234 
Q 2753 2413 2679 2538 
Q 2606 2663 2431 2663 
Q 2197 2663 2000 2559 
Q 1803 2456 1656 2286 
Q 1509 2116 1388 1881 
L 953 141 
Q 931 53 854 -9 
Q 778 -72 684 -72 
Q 606 -72 550 -22 
Q 494 28 494 109 
z
" transform="scale(0.015625)"/>
      </defs>
      <use xlink:href="#Cmmi10-6e" transform="translate(0 0.8125)"/>
     </g>
    </g>
   </g>
   <g id="matplotlib.axis_2"/>
   <g id="line2d_2">
    <path d="M 24.906294 50.610649 
L 32.982849 53.852872 
L 41.059404 56.846345 
L 49.135959 59.610154 
L 57.212514 62.161919 
L 66.442862 64.839388 
L 75.673211 67.283406 
L 84.90356 69.514329 
L 95.287702 71.792473 
L 105.671844 73.848404 
L 117.20978 75.898445 
L 128.747715 77.727545 
L 141.439445 79.512711 
L 155.284968 81.221025 
L 169.130491 82.710859 
L 184.129807 84.110617 
L 200.282917 85.403153 
L 218.743614 86.648494 
L 238.358105 87.744919 
L 260.280183 88.743328 
L 284.509848 89.622173 
L 312.200894 90.399835 
L 344.507114 91.075081 
L 382.582302 91.638049 
L 428.734045 92.089347 
L 485.26993 92.423611 
L 485.26993 92.423611 
" clip-path="url(#p98a978daa3)" style="fill: none; stroke: #0ea5e9; stroke-width: 2.2; stroke-linecap: square"/>
   </g>
   <g id="line2d_3">
    <path d="M 24.906294 72.998559 
L 28.367674 80.456693 
L 35.290436 95.60787 
L 37.598023 100.241236 
L 39.90561 104.47347 
L 42.213197 108.210764 
L 44.520784 111.376553 
L 46.828372 113.912771 
L 47.982165 114.931887 
L 49.135959 115.780554 
L 50.289752 116.456943 
L 51.443546 116.960416 
L 52.59734 117.291507 
L 53.751133 117.451891 
L 54.904927 117.444344 
L 56.05872 117.272703 
L 57.212514 116.941816 
L 58.366307 116.457486 
L 59.520101 115.82641 
L 61.827688 114.154889 
L 64.135275 111.996165 
L 66.442862 109.428934 
L 68.75045 106.539163 
L 72.21183 101.798676 
L 80.288385 90.445208 
L 82.595972 87.510666 
L 84.90356 84.848418 
L 87.211147 82.516585 
L 89.518734 80.561974 
L 91.826321 79.019349 
L 94.133908 77.911053 
L 96.441495 77.246968 
L 98.749082 77.024815 
L 101.05667 77.230749 
L 103.364257 77.84025 
L 105.671844 78.819235 
L 107.979431 80.125393 
L 110.287018 81.709664 
L 113.748399 84.487943 
L 118.363573 88.635097 
L 124.132541 93.86827 
L 127.593922 96.708199 
L 129.901509 98.380154 
L 132.209096 99.832142 
L 134.516683 101.035649 
L 136.82427 101.969993 
L 139.131858 102.622518 
L 141.439445 102.988569 
L 143.747032 103.071258 
L 146.054619 102.881038 
L 148.362206 102.435099 
L 150.669793 101.756611 
L 152.977381 100.87385 
L 156.438761 99.238459 
L 159.900142 97.338367 
L 171.438078 90.727153 
L 174.899458 89.106728 
L 178.360839 87.813811 
L 180.668426 87.161561 
L 182.976013 86.689054 
L 185.283601 86.400745 
L 187.591188 86.296029 
L 189.898775 86.369484 
L 192.206362 86.611226 
L 195.667743 87.258047 
L 199.129124 88.190674 
L 203.744298 89.750527 
L 217.589821 94.77193 
L 221.051201 95.720475 
L 224.512582 96.43941 
L 227.973963 96.901826 
L 231.435344 97.097613 
L 234.896724 97.032943 
L 238.358105 96.728825 
L 241.819486 96.218901 
L 246.43466 95.295006 
L 254.511215 93.350158 
L 261.433977 91.775631 
L 266.049151 90.958017 
L 270.664325 90.407717 
L 274.125706 90.191618 
L 277.587087 90.146635 
L 282.202261 90.336516 
L 286.817435 90.769582 
L 292.586403 91.551637 
L 308.739513 93.913918 
L 314.508481 94.417488 
L 319.123655 94.606449 
L 323.73883 94.600939 
L 329.507797 94.348916 
L 336.430559 93.782791 
L 354.891256 92.086755 
L 360.660224 91.815354 
L 366.429192 91.739434 
L 373.351953 91.89146 
L 381.428508 92.313113 
L 399.889206 93.3946 
L 407.965761 93.589263 
L 416.042316 93.540914 
L 426.426458 93.208916 
L 446.040949 92.494029 
L 455.271297 92.400782 
L 465.655439 92.525651 
L 485.26993 93.020414 
L 485.26993 93.020414 
" clip-path="url(#p98a978daa3)" style="fill: none; stroke-dasharray: 12,6; stroke-dashoffset: 0; stroke: #10b981; stroke-width: 2"/>
   </g>
   <g id="line2d_4">
    <path d="M 24.906294 135.129703 
L 32.982849 131.887481 
L 41.059404 128.894007 
L 49.135959 126.130198 
L 57.212514 123.578433 
L 66.442862 120.900965 
L 75.673211 118.456947 
L 84.90356 116.226023 
L 95.287702 113.94788 
L 105.671844 111.891948 
L 117.20978 109.841908 
L 128.747715 108.012808 
L 141.439445 106.227642 
L 155.284968 104.519328 
L 169.130491 103.029493 
L 184.129807 101.629736 
L 200.282917 100.3372 
L 218.743614 99.091859 
L 238.358105 97.995433 
L 260.280183 96.997025 
L 284.509848 96.118179 
L 312.200894 95.340517 
L 344.507114 94.665271 
L 382.582302 94.102303 
L 428.734045 93.651006 
L 485.26993 93.316741 
L 485.26993 93.316741 
" clip-path="url(#p98a978daa3)" style="fill: none; stroke: #e11d48; stroke-width: 2.2; stroke-linecap: square"/>
   </g>
   <g id="patch_3">
    <path d="M 7.2 178.540353 
L 7.2 7.2 
" style="fill: none; stroke: #000000; stroke-width: 0.8; stroke-linejoin: miter; stroke-linecap: square"/>
   </g>
   <g id="patch_4">
    <path d="M 7.2 178.540353 
L 513.6 178.540353 
" style="fill: none; stroke: #000000; stroke-width: 0.8; stroke-linejoin: miter; stroke-linecap: square"/>
   </g>
   <g id="text_2">
    <!-- $\alpha$ -->
    <g style="fill: #92400e" transform="translate(495.893706 96.457364) scale(0.13 -0.13)">
     <defs>
      <path id="Cmmi10-ae" d="M 1288 -72 
Q 984 -72 748 72 
Q 513 216 384 459 
Q 256 703 256 1013 
Q 256 1447 498 1872 
Q 741 2297 1142 2562 
Q 1544 2828 1984 2828 
Q 2309 2828 2556 2658 
Q 2803 2488 2931 2205 
Q 3059 1922 3059 1600 
L 3066 1172 
Q 3284 1475 3436 1801 
Q 3588 2128 3669 2478 
Q 3681 2516 3719 2516 
L 3794 2516 
Q 3853 2516 3853 2456 
Q 3853 2450 3847 2438 
Q 3772 2144 3659 1873 
Q 3547 1603 3395 1350 
Q 3244 1097 3066 891 
Q 3066 97 3250 97 
Q 3369 97 3445 167 
Q 3522 238 3580 341 
Q 3638 444 3653 447 
L 3731 447 
Q 3781 447 3781 384 
Q 3781 225 3598 76 
Q 3416 -72 3238 -72 
Q 3006 -72 2853 78 
Q 2700 228 2644 469 
Q 2344 213 1994 70 
Q 1644 -72 1288 -72 
z
M 1300 97 
Q 1984 97 2613 659 
Q 2609 697 2603 751 
Q 2597 806 2597 813 
L 2597 1503 
Q 2597 2663 1972 2663 
Q 1597 2663 1315 2342 
Q 1034 2022 892 1576 
Q 750 1131 750 763 
Q 750 484 892 290 
Q 1034 97 1300 97 
z
" transform="scale(0.015625)"/>
     </defs>
     <use xlink:href="#Cmmi10-ae" transform="translate(0 0.8125)"/>
    </g>
   </g>
   <g id="legend_1">
    <g id="patch_5">
     <path d="M 174.27 224.047132 
L 346.53 224.047132 
Q 348.73 224.047132 348.73 221.847132 
L 348.73 206.801195 
Q 348.73 204.601195 346.53 204.601195 
L 174.27 204.601195 
Q 172.07 204.601195 172.07 206.801195 
L 172.07 221.847132 
Q 172.07 224.047132 174.27 224.047132 
L 174.27 224.047132 
z
" style="fill: none; opacity: 0"/>
    </g>
    <g id="line2d_5">
     <path d="M 176.47 213.509476 
L 187.47 213.509476 
L 198.47 213.509476 
" style="fill: none; stroke: #0ea5e9; stroke-width: 2.2; stroke-linecap: square"/>
    </g>
    <g id="text_3">
     <!-- $c_n$ -->
     <g transform="translate(207.27 217.359476) scale(0.11 -0.11)">
      <defs>
       <path id="Cmmi10-63" d="M 750 763 
Q 750 484 892 290 
Q 1034 97 1300 97 
Q 1681 97 2032 272 
Q 2384 447 2606 756 
Q 2625 775 2656 775 
Q 2688 775 2720 739 
Q 2753 703 2753 672 
Q 2753 647 2741 634 
Q 2506 306 2109 117 
Q 1713 -72 1288 -72 
Q 981 -72 747 73 
Q 513 219 384 462 
Q 256 706 256 1013 
Q 256 1444 497 1869 
Q 738 2294 1138 2561 
Q 1538 2828 1978 2828 
Q 2266 2828 2495 2689 
Q 2725 2550 2725 2278 
Q 2725 2103 2623 1979 
Q 2522 1856 2350 1856 
Q 2247 1856 2176 1920 
Q 2106 1984 2106 2088 
Q 2106 2238 2215 2344 
Q 2325 2450 2472 2450 
L 2484 2450 
Q 2409 2559 2267 2611 
Q 2125 2663 1972 2663 
Q 1597 2663 1315 2342 
Q 1034 2022 892 1576 
Q 750 1131 750 763 
z
" transform="scale(0.015625)"/>
      </defs>
      <use xlink:href="#Cmmi10-63" transform="translate(0 0.8125)"/>
      <use xlink:href="#Cmmi10-6e" transform="translate(43.212891 -16.19375) scale(0.7)"/>
     </g>
    </g>
    <g id="line2d_6">
     <path d="M 239.39 213.509476 
L 250.39 213.509476 
L 261.39 213.509476 
" style="fill: none; stroke-dasharray: 12,6; stroke-dashoffset: 0; stroke: #10b981; stroke-width: 2"/>
    </g>
    <g id="text_4">
     <!-- $b_n$ -->
     <g transform="translate(270.19 217.359476) scale(0.11 -0.11)">
      <defs>
       <path id="Cmmi10-62" d="M 1106 -72 
Q 719 -72 503 231 
Q 288 534 288 941 
Q 288 1000 317 1173 
Q 347 1347 347 1388 
L 966 3872 
Q 991 3981 997 4044 
Q 997 4147 581 4147 
Q 519 4147 519 4231 
Q 522 4247 533 4287 
Q 544 4328 561 4350 
Q 578 4372 609 4372 
L 1472 4441 
Q 1550 4441 1550 4359 
L 1075 2472 
Q 1438 2828 1806 2828 
Q 2078 2828 2273 2684 
Q 2469 2541 2566 2306 
Q 2663 2072 2663 1806 
Q 2663 1497 2542 1167 
Q 2422 838 2209 555 
Q 1997 272 1712 100 
Q 1428 -72 1106 -72 
z
M 1119 97 
Q 1338 97 1528 280 
Q 1719 463 1838 691 
Q 1966 947 2077 1386 
Q 2188 1825 2188 2088 
Q 2188 2316 2092 2489 
Q 1997 2663 1791 2663 
Q 1559 2663 1348 2492 
Q 1138 2322 978 2088 
L 800 1363 
Q 697 959 691 716 
Q 691 475 795 286 
Q 900 97 1119 97 
z
" transform="scale(0.015625)"/>
      </defs>
      <use xlink:href="#Cmmi10-62" transform="translate(0 0.609375)"/>
      <use xlink:href="#Cmmi10-6e" transform="translate(42.919922 -16.396875) scale(0.7)"/>
     </g>
    </g>
    <g id="line2d_7">
     <path d="M 302.31 213.509476 
L 313.31 213.509476 
L 324.31 213.509476 
" style="fill: none; stroke: #e11d48; stroke-width: 2.2; stroke-linecap: square"/>
    </g>
    <g id="text_5">
     <!-- $a_n$ -->
     <g transform="translate(333.11 217.359476) scale(0.11 -0.11)">
      <defs>
       <path id="Cmmi10-61" d="M 1113 -72 
Q 709 -72 476 233 
Q 244 538 244 953 
Q 244 1363 456 1803 
Q 669 2244 1030 2536 
Q 1391 2828 1806 2828 
Q 1997 2828 2147 2725 
Q 2297 2622 2381 2444 
Q 2453 2700 2663 2700 
Q 2744 2700 2798 2651 
Q 2853 2603 2853 2522 
Q 2853 2503 2851 2493 
Q 2850 2484 2847 2472 
L 2400 684 
Q 2356 494 2356 372 
Q 2356 97 2541 97 
Q 2741 97 2845 351 
Q 2950 606 3022 941 
Q 3034 978 3072 978 
L 3150 978 
Q 3175 978 3190 956 
Q 3206 934 3206 916 
Q 3094 469 2961 198 
Q 2828 -72 2528 -72 
Q 2313 -72 2147 54 
Q 1981 181 1941 391 
Q 1528 -72 1113 -72 
z
M 1119 97 
Q 1350 97 1567 270 
Q 1784 444 1941 678 
Q 1947 684 1947 697 
L 2291 2088 
L 2297 2106 
Q 2259 2334 2132 2498 
Q 2006 2663 1791 2663 
Q 1575 2663 1389 2486 
Q 1203 2309 1075 2069 
Q 950 1813 836 1366 
Q 722 919 722 672 
Q 722 450 817 273 
Q 913 97 1119 97 
z
" transform="scale(0.015625)"/>
      </defs>
      <use xlink:href="#Cmmi10-61" transform="translate(0 0.8125)"/>
      <use xlink:href="#Cmmi10-6e" transform="translate(52.783203 -16.19375) scale(0.7)"/>
     </g>
    </g>
   </g>
  </g>
 </g>
 <defs>
  <clipPath id="p98a978daa3">
   <rect x="7.2" y="7.2" width="506.4" height="171.340353"/>
  </clipPath>
 </defs>
</svg>
